HIERARCHY
ROOT hip
{
  OFFSET 0 0 0
  CHANNELS 6 Xposition Yposition Zposition Zrotation Yrotation Xrotation
  JOINT abdomen
  {
    OFFSET 0 20.6881 -0.73152
    CHANNELS 3 Zrotation Xrotation Yrotation
    JOINT chest
    {
      OFFSET 0 11.7043 -0.48768
      CHANNELS 3 Zrotation Xrotation Yrotation
      JOINT neck
      {
        OFFSET 0 22.1894 -2.19456
        CHANNELS 3 Zrotation Xrotation Yrotation
        JOINT head
        {
          OFFSET -0.24384 7.07133 1.2192
          CHANNELS 3 Zrotation Xrotation Yrotation
          JOINT leftEye
          {
            OFFSET 4.14528 8.04674 8.04672
            CHANNELS 3 Zrotation Xrotation Yrotation
            End Site
            {
              OFFSET 1 0 0
            }
          }
          JOINT rightEye
          {
            OFFSET -3.6576 8.04674 8.04672
            CHANNELS 3 Zrotation Xrotation Yrotation
            End Site
            {
              OFFSET 1 0 0
            }
          }
        }
      }
      JOINT rCollar
      {
        OFFSET -2.68224 19.2634 -4.8768
        CHANNELS 3 Zrotation Xrotation Yrotation
        JOINT rShldr
        {
          OFFSET -8.77824 -1.95073 1.46304
          CHANNELS 3 Zrotation Xrotation Yrotation
          JOINT rForeArm
          {
            OFFSET -28.1742 -1.7115 0.48768
            CHANNELS 3 Zrotation Xrotation Yrotation
            JOINT rHand
            {
              OFFSET -22.5879 0.773209 7.07136
              CHANNELS 3 Zrotation Xrotation Yrotation
              JOINT rThumb1
              {
                OFFSET -1.2192 -0.487915 3.41376
                CHANNELS 3 Zrotation Xrotation Yrotation
                JOINT rThumb2
                {
                  OFFSET -3.37035 -0.52449 3.41376
                  CHANNELS 3 Zrotation Xrotation Yrotation
                  End Site
                  {
                    OFFSET -1.78271 -1.18214 1.43049
                  }
                }
              }
              JOINT rIndex1
              {
                OFFSET -7.75947 0.938293 5.60832
                CHANNELS 3 Zrotation Xrotation Yrotation
                JOINT rIndex2
                {
                  OFFSET -2.54057 -0.884171 1.56538
                  CHANNELS 3 Zrotation Xrotation Yrotation
                  End Site
                  {
                    OFFSET -1.62519 -0.234802 1.16502
                  }
                }
              }
              JOINT rMid1
              {
                OFFSET -8.24714 1.18213 3.41376
                CHANNELS 3 Zrotation Xrotation Yrotation
                JOINT rMid2
                {
                  OFFSET -3.10165 -0.590103 1.0647
                  CHANNELS 3 Zrotation Xrotation Yrotation
                  End Site
                  {
                    OFFSET -2.48547 -0.328903 0.83742
                  }
                }
              }
              JOINT rRing1
              {
                OFFSET -8.82822 0.546677 1.51678
                CHANNELS 3 Zrotation Xrotation Yrotation
                JOINT rRing2
                {
                  OFFSET -2.60934 -0.819778 -0.0198488
                  CHANNELS 3 Zrotation Xrotation Yrotation
                  End Site
                  {
                    OFFSET -2.33842 -0.294052 0.168128
                  }
                }
              }
              JOINT rPinky1
              {
                OFFSET -8.27202 -0.0477905 -0.4584
                CHANNELS 3 Zrotation Xrotation Yrotation
                JOINT rPinky2
                {
                  OFFSET -1.82734 -0.647385 -0.700984
                  CHANNELS 3 Zrotation Xrotation Yrotation
                  End Site
                  {
                    OFFSET -1.69225 -0.51767 -0.607171
                  }
                }
              }
            }
          }
        }
      }
      JOINT lCollar
      {
        OFFSET 2.68224 19.2634 -4.8768
        CHANNELS 3 Zrotation Xrotation Yrotation
        JOINT lShldr
        {
          OFFSET 8.77824 -1.95073 1.46304
          CHANNELS 3 Zrotation Xrotation Yrotation
          JOINT lForeArm
          {
            OFFSET 28.1742 -1.7115 0.48768
            CHANNELS 3 Zrotation Xrotation Yrotation
            JOINT lHand
            {
              OFFSET 22.5879 0.773209 7.07136
              CHANNELS 3 Zrotation Xrotation Yrotation
              JOINT lThumb1
              {
                OFFSET 1.2192 -0.487915 3.41376
                CHANNELS 3 Zrotation Xrotation Yrotation
                JOINT lThumb2
                {
                  OFFSET 3.37035 -0.52449 3.41376
                  CHANNELS 3 Zrotation Xrotation Yrotation
                  End Site
                  {
                    OFFSET 1.78271 -1.18214 1.43049
                  }
                }
              }
              JOINT lIndex1
              {
                OFFSET 7.75947 0.938293 5.60832
                CHANNELS 3 Zrotation Xrotation Yrotation
                JOINT lIndex2
                {
                  OFFSET 2.54057 -0.884171 1.56538
                  CHANNELS 3 Zrotation Xrotation Yrotation
                  End Site
                  {
                    OFFSET 1.62519 -0.234802 1.16502
                  }
                }
              }
              JOINT lMid1
              {
                OFFSET 8.24714 1.18213 3.41376
                CHANNELS 3 Zrotation Xrotation Yrotation
                JOINT lMid2
                {
                  OFFSET 3.10165 -0.590103 1.0647
                  CHANNELS 3 Zrotation Xrotation Yrotation
                  End Site
                  {
                    OFFSET 2.48547 -0.328903 0.83742
                  }
                }
              }
              JOINT lRing1
              {
                OFFSET 8.82822 0.546677 1.51678
                CHANNELS 3 Zrotation Xrotation Yrotation
                JOINT lRing2
                {
                  OFFSET 2.60934 -0.819778 -0.0198488
                  CHANNELS 3 Zrotation Xrotation Yrotation
                  End Site
                  {
                    OFFSET 2.33842 -0.294052 0.168128
                  }
                }
              }
              JOINT lPinky1
              {
                OFFSET 8.27202 -0.0477905 -0.4584
                CHANNELS 3 Zrotation Xrotation Yrotation
                JOINT lPinky2
                {
                  OFFSET 1.82734 -0.647385 -0.700984
                  CHANNELS 3 Zrotation Xrotation Yrotation
                  End Site
                  {
                    OFFSET 1.69225 -0.51767 -0.607171
                  }
                }
              }
            }
          }
        }
      }
    }
  }
  JOINT rButtock
  {
    OFFSET -8.77824 4.35084 1.2192
    CHANNELS 3 Zrotation Xrotation Yrotation
    JOINT rThigh
    {
      OFFSET 0 -1.70687 -2.19456
      CHANNELS 3 Zrotation Xrotation Yrotation
      JOINT rShin
      {
        OFFSET 0 -36.8199 0.73152
        CHANNELS 3 Zrotation Xrotation Yrotation
        JOINT rFoot
        {
          OFFSET 0.73152 -45.1104 -5.12064
          CHANNELS 3 Zrotation Xrotation Yrotation
          End Site
          {
            OFFSET -1.1221 -3.69964 12.103
          }
        }
      }
    }
  }
  JOINT lButtock
  {
    OFFSET 8.77824 4.35084 1.2192
    CHANNELS 3 Zrotation Xrotation Yrotation
    JOINT lThigh
    {
      OFFSET 0 -1.70687 -2.19456
      CHANNELS 3 Zrotation Xrotation Yrotation
      JOINT lShin
      {
        OFFSET 0 -36.8199 0.73152
        CHANNELS 3 Zrotation Xrotation Yrotation
        JOINT lFoot
        {
          OFFSET -0.73152 -45.1104 -5.12064
          CHANNELS 3 Zrotation Xrotation Yrotation
          End Site
          {
            OFFSET 1.1221 -3.69964 12.103
          }
        }
      }
    }
  }
}
MOTION
Frames:	4
Frame Time:	0.00833333
245.154 84.7658 36.772 0.0 0.0 0.0 -0.385195 -0.00168814 -0.0109958 -0.106233 -0.00256714 -0.0184048 4.21313e-15 0.0 6.21203e-18 1.2629e-14 3.18055e-15 1.55301e-17 -0.0 0.0 0.0 -0.0 0.0 0.0 2.2848e-15 5.43552e-18 2.48481e-16 4.45119e-14 1.86361e-17 7.95139e-16 7.66613e-13 -2.26416e-13 3.18055e-15 8.74101e-12 2.40107e-13 0.0 2.06206e-11 3.29781e-14 2.8625e-14 3.55956e-11 5.725e-14 4.77083e-14 2.06239e-11 3.26007e-14 1.59028e-14 7.73091 5.47488 0.417314 2.06182e-11 3.22031e-14 3.18055e-14 2.90554 0.965183 0.102902 2.06262e-11 3.29983e-14 2.94201e-14 10.2786 0.731801 0.0259123 2.06126e-11 3.65764e-14 4.13472e-14 2.22167 -0.733487 -0.20892 1.9892e-15 5.82377e-18 -2.48481e-16 4.33737e-14 -1.80149e-16 -3.97569e-16 7.63631e-13 2.31584e-13 -3.18055e-14 8.73893e-12 -2.1265e-13 5.08889e-14 2.06161e-11 4.49066e-14 2.22639e-14 3.56242e-11 7.63333e-14 5.08889e-14 2.06132e-11 4.33351e-14 4.13472e-14 -7.73091 5.47488 -0.417314 2.06172e-11 4.41302e-14 2.54444e-14 -2.90554 0.965183 -0.102902 2.06136e-11 4.47266e-14 2.54444e-14 -10.2786 0.731801 -0.0259123 2.06197e-11 4.8901e-14 2.22639e-14 -2.22167 -0.733487 0.20892 -2.03217e-16 0.0 -3.88251e-19 0.221623 -2.58356 -0.0280803 -0.00748938 -0.872627 -0.0651383 -0.513083 3.45577 0.129343 2.03217e-16 0.0 3.88251e-19 -0.807802 -4.07084 0.0653922 0.00325595 1.82138 0.0244337 0.517739 2.24911 -0.105184
242.727 83.2517 30.1014 -95.3846 -85.8611 108.4 0.970217 -2.14368 -0.666976 0.195832 -0.182407 -0.250822 -3.33983 0.292141 -2.45818 3.98032 -2.63216 -3.7006 -0.0 0.0 0.0 -0.0 0.0 0.0 3.39023e-14 -6.86391e-13 -8.00613e-15 21.8895 2.75375 1.08913 -3.69752 -1.5899 5.87117 0.0517502 5.04993 0.699803 -5.79893e-10 -3.29545e-10 8.7692e-10 -9.88663e-10 -5.70853e-10 1.52427e-09 -5.79891e-10 -3.29543e-10 8.7691e-10 7.73091 5.47488 0.417314 -5.79898e-10 -3.29544e-10 8.76921e-10 2.90554 0.965183 0.102902 -5.79886e-10 -3.29542e-10 8.76916e-10 10.2786 0.731801 0.0259123 -5.79898e-10 -3.2954e-10 8.76924e-10 2.22167 -0.733487 -0.20892 3.36693e-14 -6.86391e-13 -8.48174e-15 -23.0307 1.3896 -0.078385 3.90164 -1.71392 -6.15634 -0.126338 7.89858 -1.07235 4.98337e-10 -6.11748e-10 -1.2165e-09 8.33149e-10 -1.05091e-09 -2.11129e-09 4.98333e-10 -6.11749e-10 -1.21649e-09 -7.73091 5.47488 -0.417314 4.98337e-10 -6.11749e-10 -1.2165e-09 -2.90554 0.965183 -0.102902 4.98332e-10 -6.11749e-10 -1.2165e-09 -10.2786 0.731801 -0.0259123 4.9834e-10 -6.11745e-10 -1.2165e-09 -2.22167 -0.733487 0.20892 -2.03217e-16 0.0 -3.88251e-19 1.67212 -5.73287 0.490855 -0.00454284 2.7472 0.00849374 -0.740322 0.900917 -3.93499 2.03217e-16 0.0 3.88251e-19 1.17035 -6.80461 -0.890357 0.000392961 4.85159 -0.027939 0.508129 0.0520638 0.117199
242.766 83.0823 30.1433 -95.4912 -86.0566 108.521 2.34022 -4.40484 -1.36646 0.517713 -0.376742 -0.497056 -6.8417 0.595766 -5.05739 7.81627 -5.37425 -7.6395 -0.0 0.0 0.0 -0.0 0.0 0.0 6.73636e-14 -1.4277e-12 -1.55269e-14 44.9143 5.67321 2.24501 -7.25633 -3.21656 12.0959 -0.0296715 10.3808 1.45718 -1.25348e-09 -7.18245e-10 1.89442e-09 -2.13706e-09 -1.24394e-09 3.29254e-09 -1.25348e-09 -7.18239e-10 1.89441e-09 7.73091 5.47488 0.417314 -1.25349e-09 -7.18241e-10 1.89442e-09 2.90554 0.965183 0.102902 -1.25347e-09 -7.18238e-10 1.89441e-09 10.2786 0.731801 0.0259123 -1.25348e-09 -7.18237e-10 1.89442e-09 2.22167 -0.733487 -0.20892 6.71963e-14 -1.4277e-12 -1.59835e-14 -47.3723 2.87695 -0.156807 7.62648 -3.45861 -12.6793 0.0737246 16.2435 -2.27651 1.05175e-09 -1.30182e-09 -2.58015e-09 1.75811e-09 -2.23659e-09 -4.47838e-09 1.05174e-09 -1.30182e-09 -2.58014e-09 -7.73091 5.47488 -0.417314 1.05174e-09 -1.30182e-09 -2.58015e-09 -2.90554 0.965183 -0.102902 1.05174e-09 -1.30182e-09 -2.58015e-09 -10.2786 0.731801 -0.0259123 1.05175e-09 -1.30182e-09 -2.58015e-09 -2.22167 -0.733487 0.20892 -2.03217e-16 0.0 -3.88251e-19 3.25512 -9.06571 1.03876 -0.0116632 6.58244 0.086697 -1.36878 -1.75953 -8.21882 2.03217e-16 0.0 3.88251e-19 3.16006 -9.69882 -1.89773 0.00345825 8.06796 -0.0839032 0.513876 -2.2407 0.324047
242.805 82.9095 30.1111 -95.2393 -85.8897 108.235 3.53314 -6.42424 -1.99004 0.795586 -0.542048 -0.715686 -9.9445 0.869974 -7.37529 10.92 -7.76426 -11.194 -0.0 0.0 0.0 -0.0 0.0 0.0 9.71373e-14 -2.05918e-12 -2.45154e-14 65.3519 8.24926 3.29777 -10.1295 -4.56972 17.6647 -0.226058 15.1406 2.1665 -1.78092e-09 -9.88702e-10 2.6307e-09 -3.03718e-09 -1.71267e-09 4.57272e-09 -1.78092e-09 -9.88695e-10 2.6307e-09 7.73091 5.47488 0.417314 -1.78093e-09 -9.88697e-10 2.6307e-09 2.90554 0.965183 0.102902 -1.78091e-09 -9.88693e-10 2.63069e-09 10.2786 0.731801 0.0259123 -1.78092e-09 -9.88693e-10 2.63069e-09 2.22167 -0.733487 -0.20892 9.70293e-14 -2.05918e-12 -2.49483e-14 -69.0807 4.16877 -0.235709 10.6178 -4.90477 -18.531 0.57663 23.6609 -3.47934 1.45378e-09 -1.83533e-09 -3.64955e-09 2.4282e-09 -3.15287e-09 -6.33398e-09 1.45377e-09 -1.83533e-09 -3.64954e-09 -7.73091 5.47488 -0.417314 1.45378e-09 -1.83534e-09 -3.64955e-09 -2.90554 0.965183 -0.102902 1.45377e-09 -1.83534e-09 -3.64955e-09 -10.2786 0.731801 -0.0259123 1.45378e-09 -1.83533e-09 -3.64955e-09 -2.22167 -0.733487 0.20892 -2.03217e-16 0.0 -3.88251e-19 4.74771 -12.0278 1.55546 -0.0268321 9.98682 0.158109 -2.27597 -4.10948 -12.0933 2.03217e-16 0.0 3.88251e-19 4.84725 -12.2599 -2.8477 0.0115421 10.912 -0.134797 0.540141 -4.34183 0.563419
